<?xml version="1.0" encoding="UTF-8"?>
<svg id="Camada_1" xmlns="http://www.w3.org/2000/svg" version="1.1" viewBox="0 0 1920 1080">
  <!-- Generator: Adobe Illustrator 29.8.2, SVG Export Plug-In . SVG Version: 2.1.1 Build 3)  -->
  <defs>
    <style>
      .st0 {
        fill: #fff;
      }

      .st1 {
        fill: #bf7841;
      }
    </style>
  </defs>
  <g>
    <path class="st0" d="M.01,483.89V12.45h129.65c33.93,0,59.47,9.42,76.6,28.26,17.15,18.84,25.72,46.38,25.72,82.63v220.72c0,44.64-7.82,79.12-23.44,103.4-15.63,24.28-42.99,36.43-82.1,36.43H0h.01ZM94.83,400.58h16.34c17.31,0,25.98-8.39,25.98-25.18v-243.21c0-15.71-2.11-25.84-6.3-30.4-4.2-4.56-12.72-6.83-25.58-6.83h-10.45v305.63h0Z"/>
    <path class="st0" d="M266.27,483.89V12.45h91.07v471.44h-91.07Z"/>
    <path class="st0" d="M492.08,488.17c-67.32,0-100.99-48.21-100.99-144.65v-203.29c0-88.04,38.57-132.06,115.71-132.06,31.78,0,56.15,6.38,73.13,19.15,16.96,12.77,28.66,31.39,35.1,55.85,6.42,24.47,9.65,54.29,9.65,89.46h-92.14v-41.79c0-10.18-1.38-18.71-4.15-25.58-2.77-6.87-8.53-10.31-17.28-10.31-10.89,0-18.08,3.66-21.57,10.98-3.48,7.32-5.23,15.36-5.23,24.1v228.49c0,12.68,1.65,23,4.95,30.93,3.3,7.95,9.77,11.92,19.42,11.92s16.65-3.97,19.95-11.92,4.95-18.43,4.95-31.48v-67.24h-25.18v-81.43h115.18v274.57h-37.78l-16.07-39.64c-16.44,29.3-42.32,43.93-77.68,43.93h.03Z"/>
    <path class="st0" d="M656.54,483.89V12.45h91.07v471.44h-91.07Z"/>
    <path class="st0" d="M825.57,483.89V102.98h-55.99V12.45h206.25v90.54h-55.99v380.9h-94.29.01Z"/>
    <path class="st0" d="M989.23,483.89l45.53-471.44h159.91l44.73,471.44h-89.2l-6.7-76.07h-56.79l-5.89,76.07h-91.61.01ZM1093.43,332.55h42.85l-20.63-239.74h-4.29l-17.95,239.74h.01Z"/>
    <path class="st0" d="M1268.35,483.89V12.45h94.29v391.08h96.96v80.36h-191.25Z"/>
  </g>
  <path class="st1" d="M269.46,1033.09c-20.18-25.83-26.29-61.28-18.34-106.38l45.85-260.03c9.88-56.03,28.5-98.27,55.84-126.73,27.34-28.46,64.88-42.69,112.59-42.69,41.58,0,73.06,11.39,94.45,34.14,21.36,22.77,28.28,55.6,20.72,98.5l-17.14,97.18h-112.28l14.71-83.39c2.86-16.18,2.86-27.35,0-33.48-2.86-6.12-9.11-9.19-18.74-9.19s-17.59,3.52-22.53,10.51c-4.96,7.01-8.63,17.3-11.03,30.86l-49.91,283.02c-2.63,14.88-2.35,25.72.84,32.51,3.17,6.79,9.14,10.18,17.91,10.18,17.5,0,28.78-14.22,33.79-42.67l17.95-101.79h113.6l-18.76,106.38c-16.68,94.55-72.52,141.83-167.5,141.83-41.15,0-71.83-12.9-92-38.74M542.31,1066.59l99.46-564.06h112.94l-82.56,468.2h116.23l-16.91,95.87h-229.18,0ZM836.27,1032.44c-17.92-26.28-22.31-65.23-13.21-116.88l72.83-413.04h109.66l-72.02,408.44c-3.17,17.96-3.9,31.96-2.16,42.03,1.73,10.07,8.28,15.1,19.66,15.1s19.69-4.92,24.93-14.77c5.23-9.85,9.48-23.96,12.72-42.36l72.02-408.44h109.66l-72.83,413.04c-9.11,51.66-27.25,90.62-54.43,116.88-27.18,26.26-63.97,39.4-110.37,39.4s-78.57-13.14-96.48-39.4M1213.71,502.52h153c41.15,0,69.24,10.08,84.31,30.21,15.05,20.14,18.57,52.98,10.54,98.5l-4.39,24.95c-9.49,53.84-34.44,86.02-74.8,96.53,22.56,6.13,36.68,20.35,42.38,42.67,5.69,22.33,5.29,51.88-1.18,88.65-10.57,59.99-27.56,105.39-50.95,136.26-23.39,30.87-58.5,46.29-105.35,46.29h-152.99l99.46-564.06h-.03ZM1304.62,925.41l12.39-70.27c3.01-17.07,2.77-29.98-.72-38.74-3.49-8.75-11.59-13.14-24.28-13.14h-21.02l-28.83,163.51,11.04.66c29.32,0,46.46-14,51.41-42.03M1309.61,714.61c9.62,0,16.83-3.6,21.6-10.84,4.77-7.22,8.33-17.4,10.64-30.54l9.95-56.47c3.25-18.39-3.25-27.58-19.43-27.58h-23.63l-22.11,125.42h22.99Z"/>
</svg>